<?xml version="1.0" encoding="UTF-8"?>
<svg width="77px" height="74px" viewBox="0 0 77 74" version="1.1" xmlns="http://www.w3.org/2000/svg" xmlns:xlink="http://www.w3.org/1999/xlink">
    <!-- Generator: Sketch 41.2 (35397) - http://www.bohemiancoding.com/sketch -->
    <title>basket</title>
    <desc>Created with Sketch.</desc>
    <defs></defs>
    <g id="Page-1" stroke="none" stroke-width="1" fill="none" fill-rule="evenodd">
        <g id="basket" fill="#aaa">
            <path d="M76.1,24.7 L76.1,24.7 C75.2,23.6 74,23 72.6,23 L71.6,23 L47.8,0.9 C47.3,0.4 46.5,0.1 45.8,0.1 C45,0.1 44.3,0.5 43.8,1 C43.3,1.5 43,2.3 43,3 C43,3.8 43.4,4.5 44,5 L63.1,23 L14.8,23 L34,5.1 C35.1,4 35.2,2.3 34.2,1.1 C33.3,1.77635684e-15 31.4,-0.1 30.2,0.9 L6.4,23 L5.4,23 C3.9,23 2.7,23.6 2,24.6 C1.1,25.7 0.7,27.2 1.1,28.4 L9.9,69 C10.4,71.8 13,73.9 15.9,73.9 L62.2,73.9 C65,73.9 67.6,71.7 68.2,69 L77,28.4 C77.1,27.2 76.8,25.7 76.1,24.7 Z M71,28.7 L62.4,67.8 L62.4,67.9 C62.4,68 62.1,68.2 62,68.2 L15.9,68.2 C15.8,68.2 15.6,68 15.5,67.9 L6.9,28.8 L71,28.8 L71,28.7 Z" id="Shape"></path>
            <path d="M39,57 C40.5,57 41.9,55.7 41.9,54.1 L41.9,40.8 C41.9,39.2 40.6,37.9 39,37.9 C37.5,37.9 36.1,39.2 36.1,40.8 L36.1,54.2 C36.1,55.7 37.4,57 39,57 Z" id="Shape"></path>
            <path d="M24.2,57 C25.7,57 27.1,55.7 27.1,54.1 L27.1,40.8 C27.1,39.2 25.8,37.9 24.2,37.9 C22.7,37.9 21.3,39.2 21.3,40.8 L21.3,54.2 C21.4,55.7 22.7,57 24.2,57 Z" id="Shape"></path>
            <path d="M53.7,57 C55.2,57 56.6,55.7 56.6,54.1 L56.6,40.8 C56.6,39.2 55.3,37.9 53.7,37.9 C52.2,37.9 50.8,39.2 50.8,40.8 L50.8,54.2 C50.8,55.7 52.2,57 53.7,57 Z" id="Shape"></path>
        </g>
    </g>
</svg>