<?xml version="1.0" encoding="UTF-8"?>
<svg width="44px" height="48px" viewBox="0 0 44 48" version="1.1" xmlns="http://www.w3.org/2000/svg" xmlns:xlink="http://www.w3.org/1999/xlink">
    <!-- Generator: Sketch 41.2 (35397) - http://www.bohemiancoding.com/sketch -->
    <title>Combined Shape</title>
    <desc>Created with Sketch.</desc>
    <defs></defs>
    <g id="Page-1" stroke="none" stroke-width="1" fill="none" fill-rule="evenodd">
        <path d="M33.31,30.34 C31.87,34.3 28.81,37.09 23.23,37.09 C17.29,37.09 12.34,32.86 12.07,27.01 L43.75,27.01 C43.75,26.83 43.93,25.03 43.93,23.32 C43.93,9.1 35.74,0.37 22.06,0.37 C10.72,0.37 0.28,9.55 0.28,23.68 C0.28,38.62 10.99,47.35 23.14,47.35 C34.03,47.35 41.05,40.96 43.3,33.31 L33.31,30.34 Z M12.34,18.82 C12.61,14.77 16.03,10.09 22.24,10.09 C29.08,10.09 31.96,14.41 32.14,18.82 L12.34,18.82 Z" id="Combined-Shape" fill="#3498DB"></path>
    </g>
</svg>