<?xml version="1.0" encoding="UTF-8"?>
<svg width="306px" height="68px" viewBox="0 0 306 68" version="1.1" xmlns="http://www.w3.org/2000/svg" xmlns:xlink="http://www.w3.org/1999/xlink">
    <!-- Generator: Sketch 41.2 (35397) - http://www.bohemiancoding.com/sketch -->
    <title>logo</title>
    <desc>Created with Sketch.</desc>
    <defs></defs>
    <g id="Page-1" stroke="none" stroke-width="1" fill="none" fill-rule="evenodd">
        <g id="logo" fill="#3498DB">
            <path d="M45.6,0.84 L33.81,0.84 L33.81,26.13 C32.55,23.79 28.95,20.64 21.3,20.64 C8.79,20.64 0.06,30.81 0.06,43.77 C0.06,57.18 9.06,67.08 21.66,67.08 C27.6,67.08 32.1,64.38 34.08,60.87 C34.08,62.94 34.35,65.1 34.53,66 L45.96,66 C45.78,64.2 45.6,60.96 45.6,57.99 L45.6,0.84 Z M12.12,43.77 C12.12,35.85 16.98,31.35 23.1,31.35 C29.22,31.35 33.99,35.76 33.99,43.68 C33.99,51.69 29.22,56.37 23.1,56.37 C16.8,56.37 12.12,51.69 12.12,43.77 Z" id="Combined-Shape"></path>
            <path d="M67.4043416,22.9575978 C60.0397735,26.7388987 55.23,34.3678265 55.23,43.86 C55.23,57.45 65.22,67.35 78.45,67.35 C91.68,67.35 101.67,57.45 101.67,43.86 C101.67,35.4645486 97.9074576,28.5266586 91.9425634,24.4192978 L82.883204,32.1365299 C86.7673806,33.7719989 89.7,37.6918287 89.7,43.86 C89.7,52.23 84.3,56.46 78.45,56.46 C72.6,56.46 67.2,52.14 67.2,43.86 C67.2,38.2719547 69.6069257,34.529219 72.9477573,32.6585753 L67.4043416,22.9575978 Z" id="Combined-Shape"></path>
            <polygon id="Path" points="123.09 66 123.09 0.84 111.12 0.84 111.12 66"></polygon>
            <path d="M147.84,66 L147.84,40.08 C147.84,35.22 150.9,31.35 156.12,31.35 C161.52,31.35 163.95,34.95 163.95,39.72 L163.95,66 L175.83,66 L175.83,40.08 C175.83,35.31 178.89,31.35 184.02,31.35 C189.51,31.35 191.85,34.95 191.85,39.72 L191.85,66 L203.46,66 L203.46,37.29 C203.46,25.41 195.63,20.46 187.44,20.46 C181.59,20.46 176.91,22.44 173.4,27.84 C171.15,23.07 166.29,20.46 160.26,20.46 C155.4,20.46 149.73,22.8 147.3,27.12 L147.3,21.72 L135.87,21.72 L135.87,66 L147.84,66 Z" id="Path"></path>
            <path d="M245.31,50.34 C243.87,54.3 240.81,57.09 235.23,57.09 C229.29,57.09 224.34,52.86 224.07,47.01 L255.75,47.01 C255.75,46.83 255.93,45.03 255.93,43.32 C255.93,29.1 247.74,20.37 234.06,20.37 C222.72,20.37 212.28,29.55 212.28,43.68 C212.28,58.62 222.99,67.35 235.14,67.35 C246.03,67.35 253.05,60.96 255.3,53.31 L245.31,50.34 Z M224.34,38.82 C224.61,34.77 228.03,30.09 234.24,30.09 C241.08,30.09 243.96,34.41 244.14,38.82 L224.34,38.82 Z" id="Combined-Shape"></path>
            <path d="M277.35,40.53 C277.35,35.4 280.41,31.35 285.63,31.35 C291.39,31.35 293.82,35.22 293.82,40.17 L293.82,66 L305.79,66 L305.79,38.1 C305.79,28.38 300.75,20.55 289.77,20.55 C285,20.55 279.69,22.62 276.99,27.21 L276.99,21.72 L265.38,21.72 L265.38,66 L277.35,66 L277.35,40.53 Z" id="Path"></path>
        </g>
    </g>
</svg>